# This file uses centimeters as units for non-parametric coordinates.

mtllib mesa.mtl
g default
v -10.985442 4.830474 4.457524
v 10.985442 4.830474 4.457524
v -10.985442 5.688914 4.457524
v 10.985442 5.688914 4.457524
v -10.985442 5.688914 -4.457524
v 10.985442 5.688914 -4.457524
v -10.985442 4.830474 -4.457524
v 10.985442 4.830474 -4.457524
v -8.115749 4.830474 4.457524
v 8.043759 4.830474 4.457524
v -8.115749 5.688914 4.457524
v 8.043759 5.688914 4.457524
v -8.115749 5.688914 -4.457524
v 8.043759 5.688914 -4.457524
v -8.115749 4.830474 -4.457524
v 8.043759 4.830474 -4.457524
v 9.716467 4.830474 4.457524
v 9.716467 5.688914 4.457524
v 9.716467 5.688914 -4.457524
v 9.716467 4.830474 -4.457524
v -9.716467 4.830474 4.457524
v -9.716467 5.688914 4.457524
v -9.716467 5.688914 -4.457524
v -9.716467 4.830474 -4.457524
v -10.985442 5.688914 -3.480711
v -10.985442 4.830474 -3.480711
v -9.716467 4.830474 -3.480711
v 9.716468 4.830474 -3.480711
v 10.985442 4.830474 -3.480711
v 10.985442 5.688914 -3.480711
v 9.716467 5.688914 -3.480711
v 8.043759 5.688914 -3.480711
v -8.115749 5.688914 -3.480711
v -9.716467 5.688914 -3.480711
v -10.985442 5.688914 -2.053988
v -10.985442 4.830474 -2.053988
v -9.716467 4.830474 -2.053988
v 9.716468 4.830474 -2.053988
v 10.985442 4.830474 -2.053988
v 10.985442 5.688914 -2.053988
v 9.716467 5.688914 -2.053988
v 8.043759 5.688914 -2.053988
v -8.115749 5.688914 -2.053988
v -9.716467 5.688914 -2.053988
v -10.985442 5.688914 3.406911
v -10.985442 4.830474 3.406911
v -9.716467 4.830474 3.406911
v 9.716468 4.830474 3.406911
v 10.985442 4.830474 3.406911
v 10.985442 5.688914 3.406911
v 9.716468 5.688914 3.406911
v 8.043759 5.688914 3.406911
v -8.115748 5.688914 3.406911
v -9.716467 5.688914 3.406911
v -10.985442 4.830474 2.078586
v -10.985442 5.688914 2.078585
v -9.716467 5.688914 2.078585
v -8.115749 5.688914 2.078585
v 8.043759 5.688914 2.078586
v 9.716468 5.688914 2.078585
v 10.985442 5.688914 2.078585
v 10.985442 4.830474 2.078586
v 9.716468 4.830474 2.078586
v -9.716467 4.830474 2.078586
v 8.043759 4.830474 -3.480711
v 8.043759 4.830474 -2.053988
v 8.043759 4.830474 2.078586
v 8.043759 4.830474 3.406911
v -8.115751 4.830474 -3.480711
v -8.115750 4.830474 -2.053988
v 3.339866 4.830474 2.078586
v -8.115749 4.830474 3.406911
v -8.115749 4.830474 2.078586
v -8.115751 0.000000 -3.480711
v -8.115750 0.000000 -2.053988
v -9.716467 0.000000 -2.053988
v -9.716467 0.000000 -3.480711
v 8.043759 0.000000 -2.053988
v 9.716468 0.000000 -2.053988
v 8.043759 0.000000 -3.480711
v 9.716468 0.000000 -3.480711
v 8.043759 0.000000 3.406911
v 9.716468 0.000000 3.406911
v 8.043759 0.000000 2.078586
v 9.716468 0.000000 2.078586
v -8.115749 0.000000 3.406911
v -8.115749 0.000000 2.078586
v -9.716467 0.000000 3.406911
v -9.716467 0.000000 2.078586
vt 0.375000 0.000000
vt 0.625000 0.000000
vt 0.375000 0.250000
vt 0.625000 0.250000
vt 0.375000 0.500000
vt 0.625000 0.500000
vt 0.375000 0.750000
vt 0.625000 0.750000
vt 0.375000 1.000000
vt 0.625000 1.000000
vt 0.875000 0.000000
vt 0.875000 0.250000
vt 0.125000 0.000000
vt 0.125000 0.250000
vt 0.408473 0.000000
vt 0.408473 1.000000
vt 0.591528 0.000000
vt 0.591528 1.000000
vt 0.408473 0.250000
vt 0.591528 0.250000
vt 0.408473 0.500000
vt 0.591528 0.500000
vt 0.408473 0.750000
vt 0.591528 0.750000
vt 0.610561 0.000000
vt 0.610561 1.000000
vt 0.610561 0.250000
vt 0.610561 0.500000
vt 0.610561 0.750000
vt 0.389439 0.000000
vt 0.389439 1.000000
vt 0.389439 0.250000
vt 0.389439 0.500000
vt 0.389439 0.750000
vt 0.152392 0.250000
vt 0.375000 0.472608
vt 0.152392 0.000000
vt 0.375000 0.777392
vt 0.389439 0.777392
vt 0.610561 0.777392
vt 0.625000 0.777392
vt 0.847608 0.000000
vt 0.625000 0.472608
vt 0.847608 0.250000
vt 0.610561 0.472608
vt 0.591528 0.472608
vt 0.408473 0.472608
vt 0.389439 0.472608
vt 0.192401 0.250000
vt 0.375000 0.432599
vt 0.192401 0.000000
vt 0.375000 0.817401
vt 0.389439 0.817401
vt 0.610561 0.817401
vt 0.625000 0.817401
vt 0.807599 0.000000
vt 0.625000 0.432599
vt 0.807599 0.250000
vt 0.610561 0.432599
vt 0.591528 0.432599
vt 0.408473 0.432599
vt 0.389439 0.432599
vt 0.345538 0.250000
vt 0.375000 0.279462
vt 0.345538 0.000000
vt 0.375000 0.970538
vt 0.389439 0.970538
vt 0.610561 0.970538
vt 0.625000 0.970538
vt 0.654462 0.000000
vt 0.625000 0.279462
vt 0.654462 0.250000
vt 0.610561 0.279462
vt 0.591528 0.279462
vt 0.408472 0.279462
vt 0.389439 0.279462
vt 0.308289 0.000000
vt 0.375000 0.933289
vt 0.308289 0.250000
vt 0.375000 0.316711
vt 0.389439 0.316711
vt 0.408473 0.316711
vt 0.591528 0.316711
vt 0.610561 0.316711
vt 0.625000 0.316711
vt 0.691711 0.250000
vt 0.625000 0.933289
vt 0.691711 0.000000
vt 0.610561 0.933289
vt 0.389439 0.933289
vt 0.591527 0.777392
vt 0.591527 0.817401
vt 0.591528 0.933289
vt 0.591527 0.970538
vt 0.406834 0.777392
vt 0.406834 0.817401
vt 0.538003 0.933289
vt 0.408208 0.970538
vt 0.407874 0.933289
vt 0.406834 0.777392
vt 0.406834 0.817401
vt 0.389439 0.817401
vt 0.389439 0.777392
vt 0.610561 0.817401
vt 0.591527 0.817401
vt 0.591527 0.777392
vt 0.610561 0.777392
vt 0.610561 0.970538
vt 0.591527 0.970538
vt 0.591528 0.933289
vt 0.610561 0.933289
vt 0.407874 0.933289
vt 0.408208 0.970538
vt 0.389439 0.970538
vt 0.389439 0.933289
vn 0.000000 0.000000 1.000000
vn 0.000000 0.000000 1.000000
vn 0.000000 0.000000 1.000000
vn 0.000000 0.000000 1.000000
vn 0.000000 1.000000 0.000000
vn 0.000000 1.000000 0.000000
vn 0.000000 1.000000 0.000000
vn 0.000000 1.000000 0.000000
vn 0.000000 0.000000 -1.000000
vn 0.000000 0.000000 -1.000000
vn 0.000000 0.000000 -1.000000
vn 0.000000 0.000000 -1.000000
vn 0.000000 -1.000000 0.000000
vn 0.000000 -1.000000 0.000000
vn 0.000000 -1.000000 0.000000
vn 0.000000 -1.000000 0.000000
vn 1.000000 0.000000 0.000000
vn 1.000000 0.000000 0.000000
vn 1.000000 0.000000 0.000000
vn 1.000000 0.000000 0.000000
vn -1.000000 0.000000 0.000000
vn -1.000000 0.000000 0.000000
vn -1.000000 0.000000 0.000000
vn -1.000000 0.000000 0.000000
vn 0.000000 0.000000 1.000000
vn 0.000000 0.000000 1.000000
vn 0.000000 0.000000 1.000000
vn 0.000000 0.000000 1.000000
vn 0.000000 1.000000 0.000000
vn 0.000000 1.000000 0.000000
vn 0.000000 1.000000 0.000000
vn 0.000000 1.000000 0.000000
vn 0.000000 0.000000 -1.000000
vn 0.000000 0.000000 -1.000000
vn 0.000000 0.000000 -1.000000
vn 0.000000 0.000000 -1.000000
vn 0.000000 0.000000 -1.000000
vn 0.000000 0.000000 -1.000000
vn 0.000000 1.000000 0.000000
vn 0.000000 1.000000 0.000000
vn 0.000000 0.000000 1.000000
vn 0.000000 0.000000 1.000000
vn 0.000000 1.000000 0.000000
vn 0.000000 1.000000 0.000000
vn 0.000000 0.000000 -1.000000
vn 0.000000 0.000000 -1.000000
vn 0.000000 -1.000000 0.000000
vn 0.000000 -1.000000 0.000000
vn 0.000000 -1.000000 0.000000
vn 0.000000 -1.000000 0.000000
vn 0.000000 0.000000 1.000000
vn 0.000000 0.000000 1.000000
vn 0.000000 -1.000000 0.000000
vn 0.000000 -1.000000 -0.000000
vn 0.000000 -1.000000 -0.000000
vn 0.000000 -1.000000 0.000000
vn -1.000000 0.000000 0.000000
vn -1.000000 0.000000 0.000000
vn -1.000000 0.000000 0.000000
vn -1.000000 0.000000 0.000000
vn 0.000000 -1.000000 0.000000
vn 0.000000 -1.000000 0.000000
vn 0.000000 -1.000000 0.000000
vn 0.000000 -1.000000 0.000000
vn 0.000000 -1.000000 0.000000
vn 0.000000 -1.000000 -0.000000
vn 0.000000 -1.000000 0.000000
vn 0.000000 -1.000000 0.000000
vn 0.000000 -1.000000 0.000000
vn 0.000000 -1.000000 0.000000
vn 1.000000 0.000000 0.000000
vn 1.000000 0.000000 0.000000
vn 1.000000 0.000000 0.000000
vn 1.000000 0.000000 0.000000
vn 0.000000 1.000000 0.000000
vn 0.000000 1.000000 0.000000
vn 0.000000 1.000000 0.000000
vn 0.000000 1.000000 0.000000
vn 0.000000 1.000000 0.000000
vn 0.000000 1.000000 0.000000
vn 0.000000 1.000000 0.000000
vn 0.000000 1.000000 0.000000
vn 0.000000 1.000000 0.000000
vn 0.000000 1.000000 0.000000
vn 0.000000 1.000000 0.000000
vn 0.000000 1.000000 0.000000
vn -1.000000 0.000001 0.000000
vn -1.000000 0.000001 0.000000
vn 0.000000 -1.000000 0.000000
vn 0.000000 -1.000000 0.000000
vn 0.000000 -1.000000 0.000000
vn 0.000000 -1.000000 0.000000
vn 0.000000 -1.000000 0.000000
vn 0.000000 -1.000000 0.000000
vn 0.000000 -1.000000 0.000000
vn 0.000000 -1.000000 0.000000
vn 1.000000 0.000001 0.000000
vn 1.000000 0.000001 0.000000
vn 0.000000 1.000000 0.000000
vn 0.000000 1.000000 0.000000
vn 0.000000 1.000000 0.000000
vn 0.000000 1.000000 0.000000
vn 0.000000 1.000000 0.000000
vn 0.000000 1.000000 0.000000
vn -1.000000 0.000001 0.000000
vn -1.000000 0.000001 0.000000
vn 0.000000 -1.000000 0.000000
vn 0.000000 -1.000000 0.000000
vn 0.000000 -1.000000 0.000000
vn 0.000000 -1.000000 0.000000
vn 0.000000 -1.000000 0.000000
vn 0.000000 -1.000000 0.000000
vn 0.000000 -1.000000 0.000000
vn 0.000000 -1.000000 0.000000
vn 0.000000 -1.000000 0.000000
vn 1.000000 0.000001 0.000000
vn 1.000000 0.000001 0.000000
vn 0.000000 1.000000 0.000000
vn 0.000000 1.000000 0.000000
vn 0.000000 1.000000 0.000000
vn 0.000000 1.000000 0.000000
vn 0.000000 1.000000 0.000000
vn 0.000000 1.000000 0.000000
vn 0.000000 -1.000000 0.000000
vn 0.000000 -1.000000 0.000000
vn 0.000000 -1.000000 0.000000
vn 0.000000 -1.000000 0.000000
vn 0.000000 -1.000000 0.000000
vn 0.000000 -1.000000 0.000000
vn 0.000000 -1.000000 0.000000
vn 0.000000 -1.000000 0.000000
vn 0.000000 -1.000000 0.000000
vn 0.000000 -1.000000 0.000000
vn 0.000000 -1.000000 0.000000
vn 0.000000 -1.000000 0.000000
vn 0.000000 -1.000000 0.000000
vn 0.000000 -1.000000 0.000000
vn 1.000000 0.000000 -0.000001
vn 1.000000 0.000000 -0.000001
vn 1.000000 0.000000 -0.000001
vn 1.000000 0.000000 -0.000001
vn 0.000000 0.000000 1.000000
vn 0.000000 0.000000 1.000000
vn 0.000000 0.000000 1.000000
vn 0.000000 0.000000 1.000000
vn -1.000000 0.000000 0.000000
vn -1.000000 0.000000 0.000000
vn -1.000000 0.000000 0.000000
vn -1.000000 0.000000 0.000000
vn 0.000000 0.000000 -1.000000
vn 0.000000 0.000000 -1.000000
vn 0.000000 0.000000 -1.000000
vn 0.000000 0.000000 -1.000000
vn 0.000000 0.000000 1.000000
vn 0.000000 0.000000 1.000000
vn 0.000000 0.000000 1.000000
vn 0.000000 0.000000 1.000000
vn -1.000000 0.000000 0.000000
vn -1.000000 0.000000 0.000000
vn -1.000000 0.000000 0.000000
vn -1.000000 0.000000 0.000000
vn 0.000000 0.000000 -1.000000
vn 0.000000 0.000000 -1.000000
vn 0.000000 0.000000 -1.000000
vn 0.000000 0.000000 -1.000000
vn 1.000000 0.000000 0.000000
vn 1.000000 0.000000 0.000000
vn 1.000000 0.000000 0.000000
vn 1.000000 0.000000 0.000000
vn 0.000000 0.000000 1.000000
vn 0.000000 0.000000 1.000000
vn 0.000000 0.000000 1.000000
vn 0.000000 0.000000 1.000000
vn -1.000000 0.000000 0.000000
vn -1.000000 0.000000 0.000000
vn -1.000000 0.000000 0.000000
vn -1.000000 0.000000 0.000000
vn 0.000000 0.000000 -1.000000
vn 0.000000 0.000000 -1.000000
vn 0.000000 0.000000 -1.000000
vn 0.000000 0.000000 -1.000000
vn 1.000000 0.000000 0.000000
vn 1.000000 0.000000 0.000000
vn 1.000000 0.000000 0.000000
vn 1.000000 0.000000 0.000000
vn 1.000000 0.000000 0.000000
vn 1.000000 0.000000 0.000000
vn 1.000000 0.000000 0.000000
vn 1.000000 0.000000 0.000000
vn 0.000000 0.000000 1.000000
vn 0.000000 0.000000 1.000000
vn 0.000000 0.000000 1.000000
vn 0.000000 0.000000 1.000000
vn -1.000000 0.000000 0.000000
vn -1.000000 0.000000 0.000000
vn -1.000000 0.000000 0.000000
vn -1.000000 0.000000 0.000000
vn 0.000000 0.000000 -1.000000
vn 0.000000 0.000000 -1.000000
vn 0.000000 0.000000 -1.000000
vn 0.000000 0.000000 -1.000000
s 1
g pCube1
usemtl initialShadingGroup
f 1/1/1 21/30/2 22/32/3 3/3/4
s 2
f 3/3/5 22/32/6 54/76/7 45/64/8
s 3
f 5/5/9 23/33/10 24/34/11 7/7/12
s 4
f 46/66/13 47/67/14 21/31/15 1/9/16
s 5
f 2/2/17 49/70/18 50/72/19 4/4/20
s 6
f 45/63/21 46/65/22 1/1/23 3/3/24
s 1
f 12/20/25 10/17/26 17/25/27 18/27/28
s 2
f 51/73/29 52/74/30 12/20/31 18/27/32
s 3
f 16/24/33 14/22/34 19/28/35 20/29/36
f 15/23/37 13/21/38 14/22/34 16/24/33
s 2
f 52/74/30 53/75/39 11/19/40 12/20/31
s 1
f 18/27/28 17/25/27 2/2/41 4/4/42
s 2
f 50/71/43 51/73/29 18/27/32 4/4/44
s 3
f 20/29/36 19/28/35 6/6/45 8/8/46
s 4
f 17/26/47 48/68/48 49/69/49 2/10/50
s 1
f 11/19/51 9/15/52 10/17/26 12/20/25
s 2
f 53/75/39 54/76/7 22/32/6 11/19/40
s 3
f 24/34/11 23/33/10 13/21/38 15/23/37
s 4
f 9/16/53 72/98/54 68/94/55 10/18/56
s 6
f 7/13/57 26/37/58 25/35/59 5/14/60
s 4
f 7/7/61 24/34/62 27/39/63 26/38/64
f 15/23/65 69/95/66 27/39/63 24/34/62
f 29/41/67 28/40/68 20/29/69 8/8/70
s 5
f 30/44/71 29/42/72 8/11/73 6/12/74
s 2
f 19/28/75 31/45/76 30/43/77 6/6/78
f 14/22/79 32/46/80 31/45/76 19/28/75
f 13/21/81 33/47/82 32/46/80 14/22/79
f 23/33/83 34/48/84 33/47/82 13/21/81
f 25/36/85 34/48/84 23/33/83 5/5/86
s 6
f 25/35/59 26/37/58 36/51/87 35/49/88
s 4
f 26/38/64 27/39/63 37/53/89 36/52/90
s off
f 74/100/91 75/101/92 76/102/93 77/103/94
s 4
f 39/55/95 38/54/96 28/40/68 29/41/67
s 5
f 40/58/97 39/56/98 29/42/72 30/44/71
s 2
f 30/43/77 31/45/76 41/59/99 40/57/100
f 31/45/76 32/46/80 42/60/101 41/59/99
f 32/46/80 33/47/82 43/61/102 42/60/101
f 33/47/82 34/48/84 44/62/103 43/61/102
f 35/50/104 44/62/103 34/48/84 25/36/85
s 6
f 35/49/88 36/51/87 55/77/105 56/79/106
s 4
f 36/52/90 37/53/89 64/90/107 55/78/108
f 71/97/109 73/99/110 70/96/111 66/92/112 67/93/113
f 62/87/114 63/89/115 38/54/96 39/55/95
s 5
f 61/86/116 62/88/117 39/56/98 40/58/97
s 2
f 40/57/100 41/59/99 60/84/118 61/85/119
f 41/59/99 42/60/101 59/83/120 60/84/118
f 42/60/101 43/61/102 58/82/121 59/83/120
f 43/61/102 44/62/103 57/81/122 58/82/121
f 56/80/123 57/81/122 44/62/103 35/50/104
s 6
f 56/79/106 55/77/105 46/65/22 45/63/21
s 2
f 45/64/8 54/76/7 57/81/122 56/80/123
f 58/82/121 57/81/122 54/76/7 53/75/39
f 59/83/120 58/82/121 53/75/39 52/74/30
f 60/84/118 59/83/120 52/74/30 51/73/29
f 61/85/119 60/84/118 51/73/29 50/71/43
s 5
f 50/72/19 49/70/18 62/88/117 61/86/116
s 4
f 49/69/49 48/68/48 63/89/115 62/87/114
f 67/93/113 68/94/55 72/98/54 73/99/110 71/97/109
f 55/78/108 64/90/107 47/67/14 46/66/13
s 1
f 11/19/51 22/32/3 21/30/2 9/15/52
s 4
f 28/40/68 65/91/124 16/24/125 20/29/69
s off
f 79/104/126 78/105/127 80/106/128 81/107/129
s 4
f 63/89/115 67/93/113 66/92/112 38/54/96
s off
f 83/108/130 82/109/131 84/110/132 85/111/133
s 4
f 10/18/56 68/94/55 48/68/48 17/26/47
f 16/24/125 65/91/124 69/95/66 15/23/65
f 65/91/124 66/92/112 70/96/111 69/95/66
f 21/31/15 47/67/14 72/98/54 9/16/53
s off
f 87/112/134 86/113/135 88/114/136 89/115/137
s 4
f 70/96/111 73/99/110 64/90/107 37/53/89
s off
f 69/95/138 70/96/139 75/101/140 74/100/141
f 70/96/142 37/53/143 76/102/144 75/101/145
f 37/53/146 27/39/147 77/103/148 76/102/149
f 27/39/150 69/95/151 74/100/152 77/103/153
f 38/54/154 66/92/155 78/105/156 79/104/157
f 66/92/158 65/91/159 80/106/160 78/105/161
f 65/91/162 28/40/163 81/107/164 80/106/165
f 28/40/166 38/54/167 79/104/168 81/107/169
f 48/68/170 68/94/171 82/109/172 83/108/173
f 68/94/174 67/93/175 84/110/176 82/109/177
f 67/93/178 63/89/179 85/111/180 84/110/181
f 63/89/182 48/68/183 83/108/184 85/111/185
f 73/99/186 72/98/187 86/113/188 87/112/189
f 72/98/190 47/67/191 88/114/192 86/113/193
f 47/67/194 64/90/195 89/115/196 88/114/197
f 64/90/198 73/99/199 87/112/200 89/115/201
